<svg width="34" height="34" viewBox="0 0 34 34" xmlns="http://www.w3.org/2000/svg" xmlns:xlink="http://www.w3.org/1999/xlink" overflow="hidden"><path d="M19 2C9.61116 2 2 9.61116 2 19 2 28.3888 9.61116 36 19 36 28.3888 36 36 28.3888 36 19 36 9.61116 28.3888 2 19 2ZM19 32.6C11.4889 32.6 5.4 26.5111 5.4 19 5.4 11.4889 11.4889 5.4 19 5.4 26.5111 5.4 32.6 11.4889 32.6 19 32.6 26.5111 26.5111 32.6 19 32.6ZM19 8.8C18.0611 8.8 17.3 9.56112 17.3 10.5L17.3 18.573 14.951 22.955C14.5078 23.7834 14.8201 24.8143 15.6485 25.2575 16.4769 25.7007 17.5078 25.3884 17.951 24.56L20.5 19.8C20.6309 19.5536 20.6996 19.279 20.7 19L20.7 10.5C20.7 9.56112 19.9389 8.8 19 8.8Z" id="clock" fill="#FFFFFF" transform="translate(-2 -2)"/></svg>