<svg width="27.318" height="27.824" viewBox="0 0 27.318 27.824" xmlns="http://www.w3.org/2000/svg" xmlns:xlink="http://www.w3.org/1999/xlink" overflow="hidden"><g id="chat" transform="translate(-4.086 0)"><g id="Group_32" transform="translate(4.086 0)"><path d="M26.211 2.966C20.3307-1.7328 11.7546-0.774972 7.05578 5.10537 2.69818 10.5587 3.16538 18.423 8.138 23.322 7.71808 23.9648 7.20517 24.5417 6.616 25.034 5.96242 25.622 5.90571 26.6272 6.489 27.285 6.78554 27.6052 7.19437 27.7983 7.63 27.824L7.852 27.824C9.74077 27.8351 11.6068 27.4118 13.306 26.587 20.4322 29.0447 28.2015 25.26 30.6592 18.1338 32.5521 12.645 30.7656 6.55947 26.206 2.965ZM21.835 14.7 18.664 14.7 18.664 17.871 16.764 17.871 16.764 14.7 13.591 14.7 13.591 12.8 16.762 12.8 16.762 9.624 18.662 9.624 18.662 12.8 21.833 12.8Z" id="Path_57" fill="#FFFFFF" transform="translate(-4.086 0)"/></g></g></svg>