<svg width="28" height="28" viewBox="0 0 28 28" xmlns="http://www.w3.org/2000/svg" xmlns:xlink="http://www.w3.org/1999/xlink" id="pending" overflow="hidden"><g id="Group_22"><path d="M28.72 5.281C28.6206 4.81938 28.1658 4.52574 27.7042 4.62515 27.5426 4.65994 27.3946 4.74082 27.278 4.858L25.806 6.368C20.3276 1.26234 11.7715 1.47702 6.556 6.851 1.08113 12.5331 1.08113 21.5279 6.556 27.21 6.733 27.391 6.909 27.542 7.056 27.724 7.32687 27.978 7.6847 28.1186 8.056 28.117 8.4862 28.1133 8.89408 27.925 9.176 27.6 9.73203 26.9626 9.67973 25.9985 9.058 25.425L8.646 25.032C4.37342 20.5475 4.3862 13.4949 8.675 9.026 12.7295 4.84282 19.371 4.62912 23.686 8.543L22.068 10.2C21.7268 10.5561 21.7388 11.1214 22.0949 11.4626 22.203 11.5662 22.3354 11.641 22.48 11.68L29.368 13.402C29.8546 13.5036 30.3313 13.1914 30.4329 12.7049 30.4598 12.5761 30.4581 12.443 30.428 12.315Z" id="Path_32" fill="#FA8A0A" transform="translate(-2.45 -2.676)"/><path d="M50.289 31.278 47.41 29.457 47.41 24.857C47.41 24.1639 46.8481 23.602 46.155 23.602 45.4619 23.602 44.9 24.1639 44.9 24.857L44.9 30.123C44.9013 30.554 45.1246 30.9539 45.491 31.181L48.936 33.371C49.1351 33.4966 49.3646 33.5657 49.6 33.571 50.0323 33.5747 50.4344 33.35 50.658 32.98 51.0329 32.4395 50.8987 31.6975 50.3582 31.3226 50.3357 31.3069 50.3126 31.2921 50.289 31.278Z" id="Path_33" fill="#FA8A0A" transform="translate(-31.704 -16.628)"/><path d="M33.845 85.65 33.377 85.502C32.7283 85.2739 32.0176 85.6149 31.7895 86.2635 31.5614 86.9122 31.9024 87.6229 32.551 87.851 32.5639 87.8556 32.5769 87.8599 32.59 87.864 32.7835 87.9326 32.9809 87.9901 33.181 88.036 33.2855 88.0643 33.3928 88.0807 33.501 88.085 34.068 88.0813 34.5621 87.6982 34.707 87.15 34.8923 86.5137 34.5268 85.8476 33.8905 85.6623 33.8754 85.6579 33.8602 85.6538 33.845 85.65Z" id="Path_34" fill="#FA8A0A" transform="translate(-22.908 -60.357)"/><path d="M52.81 86.737 52.318 86.811C51.6328 86.9116 51.1588 87.5486 51.2594 88.2338 51.2596 88.2352 51.2598 88.2366 51.26 88.238 51.3567 88.8475 51.8731 89.3022 52.49 89.321 52.5576 89.3238 52.6252 89.3153 52.69 89.296 52.89 89.271 53.108 89.222 53.305 89.196 53.9832 89.0579 54.4228 88.3981 54.289 87.719 54.135 87.0508 53.4856 86.6196 52.81 86.737Z" id="Path_35" fill="#FA8A0A" transform="translate(-36.53 -61.321)"/><path d="M70.387 78.783 69.993 79.083C69.429 79.4834 69.2949 80.2644 69.693 80.83 70.0877 81.3997 70.8689 81.5428 71.44 81.15 71.612 81.027 71.785 80.904 71.932 80.781 72.4759 80.3523 72.5694 79.5638 72.1407 79.0199 72.1378 79.0163 72.1349 79.0126 72.132 79.009 71.7267 78.4666 70.9585 78.3554 70.4161 78.7606 70.4063 78.7679 70.3966 78.7754 70.387 78.783Z" id="Path_36" fill="#FA8A0A" transform="translate(-49.277 -55.139)"/></g></svg>