<svg width="32" height="8.211" viewBox="0 0 32 8.211" xmlns="http://www.w3.org/2000/svg" xmlns:xlink="http://www.w3.org/1999/xlink" overflow="hidden"><path d="M16.8 7.8C14.6102 7.87925 12.8978 9.71604 12.972 11.906 12.8983 14.0956 14.6106 15.9318 16.8 16.011 18.9894 15.9312 20.7012 14.0946 20.627 11.905 20.7007 9.7158 18.989 7.87979 16.8 7.8ZM4.628 7.8C2.43822 7.87925 0.725783 9.71604 0.8 11.906 0.725783 14.096 2.43822 15.9328 4.628 16.012 6.81739 15.9322 8.52922 14.0956 8.455 11.906 8.52922 9.71604 6.81678 7.87925 4.627 7.8ZM28.974 7.8C26.7842 7.87925 25.0718 9.71604 25.146 11.906 24.9931 14.0196 26.5826 15.8569 28.6962 16.0098 30.8098 16.1627 32.6471 14.5733 32.8 12.4597 32.8133 12.2754 32.8133 12.0903 32.8 11.906 32.8742 9.71604 31.1618 7.87925 28.972 7.8Z" id="dots" fill="#FFFFFF" transform="translate(-0.8 -7.8)"/></svg>