<svg width="16.991" height="16.388" viewBox="0 0 16.991 16.388" xmlns="http://www.w3.org/2000/svg" xmlns:xlink="http://www.w3.org/1999/xlink" id="whatsapp" overflow="hidden"><path d="M9.77 0.01C5.33378 0.129927 1.77547 3.71598 1.69 8.153 1.69342 9.43232 2.01107 10.6912 2.615 11.819L1.715 16.008C1.68277 16.184 1.79932 16.3528 1.97533 16.3851 2.0217 16.3936 2.06937 16.3918 2.115 16.38L6.405 15.408C7.54664 15.9506 8.7921 16.2398 10.056 16.256 14.5897 16.4096 18.4176 12.9177 18.68 8.389 18.7212 3.79141 15.0275 0.0309342 10.4299-0.0102679 10.2098-0.0122409 9.98962-0.00547931 9.77 0.0100009ZM14.89 12.628C12.8243 14.5642 9.78464 15.0402 7.226 13.828L6.626 13.543 4 14.14 4.554 11.569 4.26 11.018C3.78296 10.1299 3.53449 9.13708 3.537 8.129 3.53883 6.42472 4.24359 4.79668 5.485 3.629 8.12848 1.14341 12.2495 1.14341 14.893 3.629 17.3783 5.96114 17.5024 9.86642 15.1703 12.3517 15.0808 12.4471 14.9883 12.5395 14.893 12.629Z" id="Path_11" fill="#FFFFFF" transform="translate(-1.69 0)"/><path d="M112.984 113.1 111.338 112.648C111.123 112.588 110.892 112.646 110.731 112.801L110.331 113.193C110.158 113.36 109.904 113.411 109.679 113.325 108.573 112.742 107.606 111.926 106.845 110.934 106.725 110.733 106.743 110.479 106.892 110.298L107.243 109.863C107.382 109.694 107.412 109.461 107.319 109.263L106.627 107.763C106.473 107.452 106.097 107.325 105.786 107.478 105.744 107.499 105.705 107.524 105.669 107.553 105.132 107.924 104.751 108.48 104.599 109.115 104.482 110.215 104.977 111.609 106.847 113.278 109.007 115.207 110.737 115.462 111.863 115.201 112.486 114.983 113.008 114.547 113.335 113.974 113.507 113.704 113.428 113.346 113.158 113.174 113.105 113.14 113.046 113.115 112.984 113.1Z" id="Path_12" fill="#FFFFFF" transform="translate(-100.365 -103.207)"/></svg>