<svg width="19.098" height="18.902" viewBox="0 0 19.098 18.902" xmlns="http://www.w3.org/2000/svg" xmlns:xlink="http://www.w3.org/1999/xlink" overflow="hidden"><g id="double-down-arrows" transform="matrix(1 0 0 1 0 -4.98)"><path d="M0.869 9.217 8.029 15.049C8.89714 15.7575 10.1439 15.7575 11.012 15.049L18.227 9.172C19.2179 8.32356 19.3334 6.83249 18.4849 5.8416 17.666 4.88514 16.2407 4.73927 15.245 5.51L9.521 10.173 3.852 5.555C2.82552 4.74998 1.3408 4.92952 0.535784 5.956-0.248241 6.95571-0.101017 8.39652 0.869 9.217Z" id="Path_55" fill="#D8D8D8"/><path d="M0.869 431.134 8.029 436.966C8.89714 437.674 10.1439 437.674 11.012 436.966L18.227 431.089C19.2275 430.253 19.3607 428.764 18.5245 427.763 17.7029 426.78 16.2471 426.632 15.244 427.429L9.521 432.09 3.852 427.474C2.85148 426.638 1.36253 426.771 0.526323 427.772-0.309882 428.772-0.176682 430.261 0.823834 431.097 0.838738 431.11 0.853794 431.122 0.869 431.134Z" id="Path_56" fill="#D8D8D8" transform="matrix(1 0 0 1 0 -413.615)"/></g></svg>