<svg width="28" height="28" viewBox="0 0 28 28" xmlns="http://www.w3.org/2000/svg" xmlns:xlink="http://www.w3.org/1999/xlink" overflow="hidden"><path d="M16.754 23.968C13.7274 26.4098 9.3903 26.3476 6.435 23.82 3.85299 21.6414 3.52598 17.7822 5.70458 15.2001 5.87954 14.9928 6.06809 14.7973 6.269 14.615L18.1 4.068C19.6134 2.78102 21.7049 2.41407 23.566 3.109 25.3625 3.69967 26.6001 5.34801 26.666 7.238 26.6529 8.45659 26.1128 9.60981 25.185 10.4L13.93 20.425C13.1845 20.9421 12.1846 20.8941 11.492 20.308 10.8502 19.7737 10.7631 18.8203 11.2974 18.1786 11.31 18.1635 11.3228 18.1486 11.336 18.134L22.6 8.081 20.681 6.381 9.417 16.435C7.87702 17.8157 7.74791 20.1834 9.12862 21.7234 9.24395 21.852 9.36804 21.9725 9.5 22.084 11.3147 23.6366 13.9801 23.669 15.832 22.161L27.117 12.107C29.8132 9.83253 30.1551 5.80299 27.8807 3.10676 27.6501 2.83344 27.397 2.57996 27.124 2.349 23.9776-0.346947 19.3364-0.349493 16.187 2.343L4.351 12.915C0.82549 15.8912 0.380193 21.1619 3.3564 24.6874 3.65938 25.0463 3.9921 25.379 4.351 25.682 8.46931 29.2092 14.5437 29.2092 18.662 25.682L29.362 16.122 27.454 14.4Z" id="attach-icon" fill="#707070" transform="translate(-1.385 -0.326)"/></svg>