<svg width="34" height="34" viewBox="0 0 34 34" xmlns="http://www.w3.org/2000/svg" xmlns:xlink="http://www.w3.org/1999/xlink" overflow="hidden"><path d="M17.3 17.3 27.484 17.3C28.4229 17.3 29.184 16.5389 29.184 15.6 29.184 14.6611 28.4229 13.9 27.484 13.9L17.3 13.9C16.3611 13.9 15.6 14.6611 15.6 15.6 15.6 16.5389 16.3611 17.3 17.3 17.3ZM10.51 13.9C9.57112 13.9 8.81 14.6611 8.81 15.6 8.81 16.5389 9.57112 17.3 10.51 17.3 11.4489 17.3 12.21 16.5389 12.21 15.6 12.21 14.6611 11.4489 13.9 10.51 13.9 10.5093 13.9 10.5087 13.9 10.508 13.9ZM10.51 20.7C9.57112 20.7 8.81 21.4611 8.81 22.4 8.81 23.3389 9.57112 24.1 10.51 24.1 11.4489 24.1 12.21 23.3389 12.21 22.4 12.21 21.4611 11.4489 20.7 10.51 20.7 10.5093 20.7 10.5087 20.7 10.508 20.7ZM19 2C9.61116 2.0096 2.0078 9.62855 2.0174 19.0174 2.02141 22.9335 3.37733 26.7281 5.856 29.76L2.456 33.16C1.80148 33.8004 1.79003 34.8501 2.43041 35.5046 2.76703 35.8487 3.23656 36.0295 3.717 36L19 36C28.3888 36 36 28.3888 36 19 36 9.61116 28.3888 2 19 2ZM19 32.6 7.809 32.6 9.388 31.019C10.0507 30.3815 10.0712 29.3275 9.43378 28.6648 9.41882 28.6492 9.40355 28.634 9.388 28.619 4.08993 23.3151 4.09465 14.7205 9.39854 9.42247 14.7024 4.1244 23.297 4.12912 28.5951 9.433 33.8931 14.7369 33.8884 23.3315 28.5845 28.6295 26.0414 31.1699 22.5945 32.5978 19 32.6ZM27.488 20.7 17.3 20.7C16.3611 20.7 15.6 21.4611 15.6 22.4 15.6 23.3389 16.3611 24.1 17.3 24.1L27.484 24.1C28.4229 24.1 29.184 23.3389 29.184 22.4 29.184 21.4611 28.4229 20.7 27.484 20.7Z" id="chat" fill="#6CC8D6" transform="translate(-1.972 -2)"/></svg>