<svg width="34" height="34" viewBox="0 0 34 34" xmlns="http://www.w3.org/2000/svg" xmlns:xlink="http://www.w3.org/1999/xlink" overflow="hidden"><path d="M10.877 33.22 4.889 33.22C3.84573 33.22 3 32.3743 3 31.331 3 30.2877 3.84573 29.442 4.889 29.442L10.877 29.442C11.9203 26.4906 15.1586 24.9438 18.11 25.987 21.0613 27.0303 22.6082 30.2686 21.5649 33.22 20.5217 36.1714 17.2833 37.7182 14.332 36.675 12.7176 36.1043 11.4477 34.8344 10.877 33.22ZM31.012 18.11 35.112 18.11C36.1553 18.11 37.001 18.9557 37.001 19.999 37.001 21.0423 36.1553 21.888 35.112 21.888L31.012 21.888C29.9687 24.8394 26.7304 26.3862 23.779 25.343 20.8277 24.2997 19.2808 21.0614 20.3241 18.11 21.3673 15.1586 24.6057 13.6118 27.557 14.655 29.1714 15.2257 30.4413 16.4956 31.012 18.11ZM25.666 21.888C26.7093 21.8886 27.5554 21.0433 27.556 20 27.5566 18.9567 26.7113 18.1106 25.668 18.11 24.6247 18.1094 23.7786 18.9547 23.778 19.998 23.778 19.9987 23.778 19.9993 23.778 20 23.7786 21.0429 24.6241 21.888 25.667 21.888ZM20 10.555C18.9567 10.555 18.111 9.70927 18.111 8.666 18.111 7.62273 18.9567 6.777 20 6.777L35.111 6.777C36.1543 6.777 37 7.62273 37 8.666 37 9.70927 36.1543 10.555 35.111 10.555ZM4.889 21.888C3.84573 21.888 3 21.0423 3 19.999 3 18.9557 3.84573 18.11 4.889 18.11L14.333 18.11C15.3763 18.11 16.222 18.9557 16.222 19.999 16.222 21.0423 15.3763 21.888 14.333 21.888ZM16.222 33.22C17.2653 33.22 18.111 32.3743 18.111 31.331 18.111 30.2877 17.2653 29.442 16.222 29.442 15.1787 29.442 14.333 30.2877 14.333 31.331 14.333 32.3743 15.1787 33.22 16.222 33.22ZM8.667 14.333C5.53775 14.3324 3.00145 11.7952 3.002 8.666 3.00255 5.53676 5.53975 3.00045 8.669 3.001 11.7979 3.00155 14.334 5.53815 14.334 8.667 14.334 11.7962 11.7972 14.333 8.668 14.333 8.66767 14.333 8.66733 14.333 8.667 14.333ZM8.667 10.555C9.71027 10.555 10.556 9.70927 10.556 8.666 10.556 7.62273 9.71027 6.777 8.667 6.777 7.62373 6.777 6.778 7.62273 6.778 8.666 6.778 9.70927 7.62373 10.555 8.667 10.555ZM27.556 33.22C26.5127 33.22 25.667 32.3743 25.667 31.331 25.667 30.2877 26.5127 29.442 27.556 29.442L35.112 29.442C36.1553 29.442 37.001 30.2877 37.001 31.331 37.001 32.3743 36.1553 33.22 35.112 33.22Z" id="filter-131979013401653166_0" fill="#707070" transform="translate(-3 -3)"/></svg>