<svg width="39.234" height="39.234" viewBox="0 0 39.234 39.234" xmlns="http://www.w3.org/2000/svg" xmlns:xlink="http://www.w3.org/1999/xlink" id="happy" overflow="hidden"><g id="Group_25"><g id="Group_24"><path d="M33.488 5.746C25.8788-1.96627 13.4583-2.0498 5.746 5.55941-1.96627 13.1686-2.0498 25.5891 5.55941 33.3014 5.62119 33.364 5.68339 33.4262 5.746 33.488 13.3552 41.2003 25.7757 41.2838 33.488 33.6746 41.2003 26.0654 41.2838 13.6448 33.6746 5.93258 33.6128 5.86997 33.5506 5.80777 33.488 5.746ZM19.617 36.9C10.0724 36.8994 2.33545 29.1616 2.336 19.617 2.33655 10.0724 10.0744 2.33545 19.619 2.336 29.1628 2.33655 36.8994 10.0732 36.9 19.617 36.8906 29.1583 29.1583 36.8906 19.617 36.9Z" id="Path_38" fill="#707070"/></g></g><g id="Group_27" transform="translate(8.096 13.002)"><g id="Group_26"><path d="M112.927 171.115C111.01 169.203 107.908 169.203 105.991 171.115 105.549 171.585 105.572 172.324 106.042 172.766 106.492 173.188 107.192 173.188 107.642 172.766 108.646 171.764 110.271 171.764 111.275 172.766 111.745 173.208 112.484 173.185 112.926 172.715 113.348 172.265 113.348 171.565 112.926 171.115Z" id="Path_39" fill="#707070" transform="translate(-105.65 -169.68)"/></g></g><g id="Group_29" transform="translate(23.518 13.002)"><g id="Group_28"><path d="M314.189 171.115C312.272 169.203 309.17 169.203 307.253 171.115 306.811 171.585 306.834 172.324 307.304 172.766 307.754 173.188 308.454 173.188 308.904 172.766 309.908 171.764 311.533 171.764 312.537 172.766 313.007 173.208 313.746 173.185 314.188 172.715 314.61 172.265 314.61 171.565 314.188 171.115Z" id="Path_40" fill="#707070" transform="translate(-306.912 -169.68)"/></g></g><g id="Group_31" transform="translate(8.096 20.473)"><g id="Group_30"><path d="M127.525 267.175 106.819 267.175C106.174 267.175 105.651 267.698 105.651 268.343 105.651 274.706 110.809 279.864 117.172 279.864 123.535 279.864 128.693 274.706 128.693 268.343 128.693 267.698 128.17 267.175 127.525 267.175ZM117.172 277.528C112.552 277.522 108.654 274.091 108.06 269.51L126.284 269.51C125.69 274.091 121.792 277.522 117.172 277.528Z" id="Path_41" fill="#707070" transform="translate(-105.651 -267.175)"/></g></g></svg>