<svg width="25.285" height="36.988" viewBox="0 0 25.285 36.988" xmlns="http://www.w3.org/2000/svg" xmlns:xlink="http://www.w3.org/1999/xlink" overflow="hidden"><g id="microphone" transform="translate(-81 0)"><path d="M106.285 226.084C106.303 225.486 105.833 224.986 105.234 224.968 104.636 224.949 104.136 225.42 104.118 226.018 104.117 226.04 104.117 226.062 104.118 226.084 104.118 231.869 99.4282 236.559 93.643 236.559 87.8578 236.559 83.168 231.869 83.168 226.084 83.1862 225.486 82.7158 224.986 82.1174 224.968 81.519 224.949 81.0192 225.42 81.001 226.018 81.0003 226.04 81.0003 226.062 81.001 226.084 81.0068 232.645 86.0241 238.114 92.56 238.684L92.56 243.571 86.707 243.571C86.1086 243.553 85.6088 244.023 85.5906 244.622 85.5724 245.22 86.0428 245.72 86.6412 245.738 86.6631 245.739 86.6851 245.739 86.707 245.738L100.577 245.738C101.175 245.72 101.646 245.22 101.628 244.622 101.61 244.049 101.15 243.588 100.577 243.571L94.726 243.571 94.726 238.684C101.262 238.114 106.279 232.645 106.285 226.084Z" id="Path_42" fill="#707070" transform="matrix(1 0 0 1 0 -208.746)"/><path d="M157.064 18.422C156.466 18.4402 155.966 17.9698 155.948 17.3714 155.929 16.773 156.4 16.2732 156.998 16.255 157.02 16.2543 157.042 16.2543 157.064 16.255L161.037 16.255 161.037 13.8 155.908 13.8C155.31 13.8182 154.81 13.3478 154.792 12.7494 154.773 12.151 155.244 11.6512 155.842 11.633 155.864 11.6323 155.886 11.6323 155.908 11.633L161.037 11.633 161.037 9.175 157.064 9.175C156.466 9.19318 155.966 8.72282 155.948 8.12442 155.929 7.52602 156.4 7.02618 156.998 7.008 157.02 7.00733 157.042 7.00733 157.064 7.008L161.01 7.008C160.69 3.0649 157.408 0.0213173 153.452-1.02997e-07L152.585 0C148.63 0.0217481 145.348 3.06452 145.027 7.007L148.973 7.007C149.571 7.02518 150.042 7.52502 150.024 8.12342 150.006 8.69628 149.546 9.1566 148.973 9.174L145 9.174 145 11.63 150.129 11.63C150.727 11.6118 151.227 12.0822 151.245 12.6806 151.264 13.279 150.793 13.7788 150.195 13.797 150.173 13.7977 150.151 13.7977 150.129 13.797L145 13.797 145 16.253 148.973 16.253C149.571 16.2712 150.042 16.771 150.024 17.3694 150.006 17.9423 149.546 18.4026 148.973 18.42L145.028 18.42C145.372 22.3392 148.651 25.3478 152.585 25.355L153.452 25.355C157.386 25.3478 160.665 22.3392 161.009 18.42Z" id="Path_43" fill="#707070" transform="translate(-59.377 0)"/></g></svg>