<svg width="28" height="28" viewBox="0 0 28 28" xmlns="http://www.w3.org/2000/svg" xmlns:xlink="http://www.w3.org/1999/xlink" id="lista" overflow="hidden"><g id="Group_17"><path d="M25 0 3 0C1.34315 -4.44089e-16 -8.88178e-16 1.34315 0 3L0 25C-4.44089e-16 26.6569 1.34315 28 3 28L25 28C26.6569 28 28 26.6569 28 25L28 3C28 1.34315 26.6569 -8.88178e-16 25 -4.44089e-16ZM9 22 6 22C5.44772 22 5 21.5523 5 21 5 20.4477 5.44772 20 6 20L9 20C9.55229 20 10 20.4477 10 21 10 21.5523 9.55229 22 9 22ZM9 15 6 15C5.44772 15 5 14.5523 5 14 5 13.4477 5.44772 13 6 13L9 13C9.55229 13 10 13.4477 10 14 10 14.5523 9.55229 15 9 15ZM9 8 6 8C5.44772 8 5 7.55228 5 7 5 6.44772 5.44772 6 6 6L9 6C9.55229 6 10 6.44772 10 7 10 7.55228 9.55229 8 9 8ZM22 22 13 22C12.4477 22 12 21.5523 12 21 12 20.4477 12.4477 20 13 20L22 20C22.5523 20 23 20.4477 23 21 23 21.5523 22.5523 22 22 22ZM22 15 13 15C12.4477 15 12 14.5523 12 14 12 13.4477 12.4477 13 13 13L22 13C22.5523 13 23 13.4477 23 14 23 14.5523 22.5523 15 22 15ZM22 8 13 8C12.4477 8 12 7.55228 12 7 12 6.44772 12.4477 6 13 6L22 6C22.5523 6 23 6.44772 23 7 23 7.55228 22.5523 8 22 8Z" id="Path_26" fill="#707070"/></g></svg>