<svg width="28" height="28" viewBox="0 0 28 28" xmlns="http://www.w3.org/2000/svg" xmlns:xlink="http://www.w3.org/1999/xlink" id="lupa" overflow="hidden"><g id="Group_18"><path d="M28.014 22.065 23.388 17.457C24.277 15.7271 24.7561 13.8158 24.788 11.871 24.8129 5.29057 19.4985-0.0640619 12.9181-0.0889147 6.33766-0.113768 0.983023 5.20057 0.95817 11.781 0.933317 18.3614 6.24766 23.7161 12.8281 23.7409 12.8431 23.741 12.858 23.741 12.873 23.741 14.8243 23.7079 16.7422 23.229 18.48 22.341L23.106 26.949C24.4063 28.3038 26.5586 28.3479 27.9133 27.0477 27.9469 27.0155 27.9798 26.9826 28.012 26.949 29.272 25.5651 29.2728 23.45 28.014 22.065ZM12.875 20.948C7.86195 20.9292 3.81329 16.8501 3.83206 11.8371 3.85084 6.82401 7.92995 2.77535 12.943 2.79413 17.9428 2.81286 21.986 6.87121 21.986 11.871 21.9866 16.8835 17.9236 20.9475 12.9111 20.9481 12.899 20.9481 12.887 20.948 12.875 20.948Z" id="Path_27" fill="#707070" transform="translate(-0.96 0)"/></g></svg>