<svg width="34" height="34" viewBox="0 0 34 34" xmlns="http://www.w3.org/2000/svg" xmlns:xlink="http://www.w3.org/1999/xlink" id="solid-black-sun-symbol" overflow="hidden"><g id="_x37__7_"><g id="Group_33"><path d="M7.234 8.736C7.62739 9.17104 8.29896 9.20481 8.734 8.81142 9.16904 8.41803 9.20281 7.74646 8.80942 7.31142 8.78556 7.28503 8.76039 7.25986 8.734 7.236L6.482 4.979C6.04696 4.58561 5.37539 4.61938 4.982 5.05442 4.61628 5.45886 4.61628 6.07456 4.982 6.479ZM7.874 24.636 5.641 26.872C5.24638 27.2992 5.27276 27.9654 5.69994 28.36 6.10339 28.7327 6.72555 28.7327 7.129 28.36L9.361 26.128C9.76602 25.7107 9.75604 25.044 9.33871 24.639 8.93018 24.2425 8.28052 24.2425 7.872 24.639ZM17 5.313C17.5871 5.313 18.063 4.83708 18.063 4.25L18.063 1.063C18.045 0.476197 17.5547 0.0150954 16.9679 0.0330998 16.4064 0.0503281 15.9552 0.501493 15.938 1.063L15.938 4.25C15.938 4.83669 16.4133 5.31245 17 5.313ZM27.222 8.266 29.454 6.034C29.8713 5.62898 29.8813 4.96233 29.4763 4.545 29.0713 4.12767 28.4046 4.11769 27.9873 4.52271 27.9798 4.53003 27.9723 4.53746 27.965 4.545L25.734 6.778C25.329 7.19533 25.339 7.86198 25.7563 8.267 26.1648 8.66347 26.8145 8.66347 27.223 8.267ZM4.25 15.938 1.063 15.938C0.476197 15.956 0.0150954 16.4463 0.0330998 17.0331 0.0503281 17.5946 0.501493 18.0458 1.063 18.063L4.25 18.063C4.8368 18.045 5.2979 17.5547 5.2799 16.9679 5.26267 16.4064 4.81151 15.9552 4.25 15.938ZM17 28.688C16.4133 28.6886 15.938 29.1643 15.938 29.751L15.938 32.939C15.956 33.5258 16.4463 33.9869 17.0331 33.9689 17.5946 33.9517 18.0458 33.5005 18.063 32.939L18.063 29.75C18.0624 29.1633 17.5867 28.688 17 28.688ZM32.938 15.938 29.75 15.938C29.1632 15.956 28.7021 16.4463 28.7201 17.0331 28.7373 17.5946 29.1885 18.0458 29.75 18.063L32.938 18.063C33.5248 18.045 33.9859 17.5547 33.9679 16.9679 33.9507 16.4064 33.4995 15.9552 32.938 15.938ZM26.767 25.265C26.332 24.8716 25.6604 24.9054 25.267 25.3404 24.9013 25.7449 24.9013 26.3606 25.267 26.765L27.521 29.019C27.956 29.4124 28.6276 29.3786 29.021 28.9436 29.3867 28.5391 29.3867 27.9234 29.021 27.519ZM17 7.431C11.7152 7.431 7.431 11.7152 7.431 17 7.431 22.2848 11.7152 26.569 17 26.569 22.2848 26.569 26.569 22.2848 26.569 17 26.569 11.7152 22.2848 7.431 17 7.431Z" id="Path_58" fill="#B6B6B6"/></g></g></svg>